<svg xmlns="http://www.w3.org/2000/svg" width="720" height="2400" viewBox="0 0 720 2400" role="img">
  <defs>
    <linearGradient id="sky" x1="0" y1="0" x2="0" y2="1">
      <stop offset="0%" stop-color="#0B1030"/>
      <stop offset="20%" stop-color="#1E1B52"/>
      <stop offset="42%" stop-color="#45286E"/>
      <stop offset="62%" stop-color="#8A3C6E"/>
      <stop offset="80%" stop-color="#D2628A"/>
      <stop offset="100%" stop-color="#F2A86A"/>
    </linearGradient>
    <linearGradient id="ground" x1="0" y1="0" x2="0" y2="1">
      <stop offset="0%" stop-color="#2A1C42"/>
      <stop offset="100%" stop-color="#150F28"/>
    </linearGradient>
    <radialGradient id="moonGlow" cx="50%" cy="50%" r="50%">
      <stop offset="0%" stop-color="#FFF4D8" stop-opacity="0.55"/>
      <stop offset="100%" stop-color="#FFF4D8" stop-opacity="0"/>
    </radialGradient>
  </defs>

  <rect x="0" y="0" width="720" height="1950" fill="url(#sky)"/>

  <circle cx="540" cy="320" r="170" fill="url(#moonGlow)"/>
  <circle cx="540" cy="320" r="78" fill="#FBF1D2"/>
  <circle cx="566" cy="300" r="78" fill="#F2A86A" opacity="0.12"/>

  <g fill="#FFFFFF">
    <circle cx="90" cy="160" r="3"/><circle cx="180" cy="90" r="2"/>
    <circle cx="300" cy="200" r="2.5"/><circle cx="410" cy="120" r="2"/>
    <circle cx="640" cy="170" r="3"/><circle cx="690" cy="90" r="2"/>
    <circle cx="120" cy="320" r="2"/><circle cx="250" cy="380" r="2.5"/>
    <circle cx="60" cy="470" r="2"/><circle cx="360" cy="300" r="2"/>
    <circle cx="470" cy="430" r="2.5"/><circle cx="660" cy="380" r="2"/>
    <circle cx="200" cy="540" r="2"/><circle cx="430" cy="560" r="2"/>
    <circle cx="610" cy="540" r="2.5"/><circle cx="320" cy="640" r="2"/>
  </g>

  <ellipse cx="250" cy="540" rx="150" ry="16" fill="#FFFFFF" opacity="0.06"/>
  <ellipse cx="560" cy="700" rx="180" ry="18" fill="#FFFFFF" opacity="0.05"/>

  <path d="M0,1360 L120,1180 L240,1330 L360,1150 L500,1340 L620,1200 L720,1320 L720,1700 L0,1700 Z" fill="#3A2A5C" opacity="0.85"/>
  <path d="M0,1500 L160,1320 L300,1480 L460,1300 L600,1490 L720,1380 L720,1760 L0,1760 Z" fill="#4A2E64" opacity="0.9"/>
  <path d="M0,1640 L140,1500 L280,1620 L420,1480 L560,1630 L700,1520 L720,1540 L720,1900 L0,1900 Z" fill="#2C1E46"/>

  <ellipse cx="360" cy="1660" rx="460" ry="60" fill="#E9A6C0" opacity="0.10"/>

  <rect x="0" y="1880" width="720" height="520" fill="url(#ground)"/>
  <path d="M0,1885 C180,1865 360,1900 540,1878 C620,1869 680,1884 720,1880 L720,1900 L0,1900 Z" fill="#5A3C68" opacity="0.55"/>

  <g fill="#120C24">
    <path d="M70,1900 q12,-70 24,0 Z"/>
    <path d="M96,1900 q10,-54 20,0 Z"/>
    <path d="M612,1900 q14,-80 28,0 Z"/>
    <path d="M642,1900 q10,-58 20,0 Z"/>
  </g>
</svg>
