<svg xmlns="http://www.w3.org/2000/svg" width="2400" height="900" viewBox="0 0 2400 900">
<defs><linearGradient id="sky" x1="0" y1="0" x2="0" y2="1">
<stop offset="0" stop-color="#85AEA4"/><stop offset="0.55" stop-color="#9FC0B6"/><stop offset="1" stop-color="#CBD8CE"/></linearGradient>
<radialGradient id="halo" cx="0.5" cy="0.5" r="0.5"><stop offset="0" stop-color="#FFF7EA" stop-opacity="0.55"/><stop offset="1" stop-color="#FFF7EA" stop-opacity="0"/></radialGradient></defs>
<rect width="2400" height="900" fill="url(#sky)"/>
<circle cx="1480" cy="250" r="150" fill="url(#halo)"/><circle cx="1480" cy="250" r="80" fill="#FFF7EA"/>
<path fill="#FABEB0" fill-opacity="0.9" d="M-40,640 C260,470 520,520 820,500 C1180,478 1460,560 1780,505 C2040,470 2240,520 2440,500 L2440,720 L-40,720 Z"/>
<path fill="#E8C5BE" d="M-40,690 C240,560 520,600 820,585 C1180,568 1420,640 1740,600 C2020,565 2260,610 2440,590 L2440,760 L-40,760 Z"/>
<path fill="#3A2F50" d="M-40,732 L-40,672 L-22,609 L-4,672 L-4,672 L14,617 L32,672 L32,672 L50,596 L68,672 L68,672 L86,620 L104,672 L104,672 L122,600 L140,672 L140,672 L158,608 L176,672 L176,672 L194,621 L212,672 L212,672 L230,602 L248,672 L248,672 L266,621 L284,672 L284,672 L302,605 L320,672 L320,672 L338,620 L356,672 L356,672 L374,619 L392,672 L392,672 L410,605 L428,672 L428,672 L446,588 L464,672 L464,672 L482,618 L500,672 L500,672 L518,614 L536,672 L536,672 L554,597 L572,672 L572,672 L590,583 L608,672 L608,672 L626,599 L644,672 L644,672 L662,606 L680,672 L680,672 L698,582 L716,672 L716,672 L734,621 L752,672 L752,672 L770,587 L788,672 L788,672 L806,611 L824,672 L824,672 L842,617 L860,672 L860,672 L878,618 L896,672 L896,672 L914,610 L932,672 L932,672 L950,589 L968,672 L968,672 L986,615 L1004,672 L1004,672 L1022,599 L1040,672 L1040,672 L1058,596 L1076,672 L1076,672 L1094,607 L1112,672 L1112,672 L1130,600 L1148,672 L1148,672 L1166,620 L1184,672 L1184,672 L1202,620 L1220,672 L1220,672 L1238,614 L1256,672 L1256,672 L1274,594 L1292,672 L1292,672 L1310,605 L1328,672 L1328,672 L1346,610 L1364,672 L1364,672 L1382,598 L1400,672 L1400,672 L1418,604 L1436,672 L1436,672 L1454,610 L1472,672 L1472,672 L1490,590 L1508,672 L1508,672 L1526,594 L1544,672 L1544,672 L1562,613 L1580,672 L1580,672 L1598,599 L1616,672 L1616,672 L1634,601 L1652,672 L1652,672 L1670,586 L1688,672 L1688,672 L1706,592 L1724,672 L1724,672 L1742,611 L1760,672 L1760,672 L1778,582 L1796,672 L1796,672 L1814,618 L1832,672 L1832,672 L1850,605 L1868,672 L1868,672 L1886,591 L1904,672 L1904,672 L1922,617 L1940,672 L1940,672 L1958,602 L1976,672 L1976,672 L1994,621 L2012,672 L2012,672 L2030,595 L2048,672 L2048,672 L2066,591 L2084,672 L2084,672 L2102,599 L2120,672 L2120,672 L2138,586 L2156,672 L2156,672 L2174,610 L2192,672 L2192,672 L2210,594 L2228,672 L2228,672 L2246,598 L2264,672 L2264,672 L2282,599 L2300,672 L2300,672 L2318,604 L2336,672 L2336,672 L2354,588 L2372,672 L2372,672 L2390,583 L2408,672 L2408,672 L2426,603 L2444,672 L2440,732 Z"/>
<rect x="0" y="700" width="2400" height="200" fill="#3A2F50"/>
</svg>