<svg xmlns="http://www.w3.org/2000/svg" width="220" height="210" viewBox="0 0 220 210"><path fill="#2B2A4A" d="M60,-10 L160,-10 L150,64 Q110,80 70,64 Z"/><rect x="64" y="52" width="92" height="9" rx="4" fill="#4958B0"/><path fill="#EAB48F" d="M72,58 Q66,96 72,128 Q86,150 110,150 Q134,150 148,128 Q154,96 148,58 Q110,72 72,58 Z"/><path fill="none" stroke="#D2936B" stroke-width="4" stroke-linecap="round" opacity="0.6" d="M82,118 Q110,128 138,118"/><path fill="#EAB48F" stroke="#D2936B" stroke-width="2" d="M69,128 Q67,172 78,182 Q89,172 87,128 Z"/><path fill="#EAB48F" stroke="#D2936B" stroke-width="2" d="M91,128 Q89,180 100,190 Q111,180 109,128 Z"/><path fill="#EAB48F" stroke="#D2936B" stroke-width="2" d="M113,128 Q111,178 122,188 Q133,178 131,128 Z"/><path fill="#EAB48F" stroke="#D2936B" stroke-width="2" d="M133,128 Q131,168 142,178 Q153,168 151,128 Z"/><path fill="#EAB48F" stroke="#D2936B" stroke-width="2" d="M74,92 Q52,98 46,118 Q44,134 58,138 Q72,134 78,116 Q78,102 74,92 Z"/><path fill="#F6D2B4" opacity="0.4" d="M84,72 Q110,80 136,72 Q138,92 110,98 Q84,92 84,72 Z"/></svg>