<svg xmlns="http://www.w3.org/2000/svg" width="258" height="270" viewBox="-12 -86 258 270" role="img">
  <path d="M160,-55 C210,-35 230,15 203,60 L160,130 C145,155 111,147 119,116 L137,52 L112,140 C103,171 66,165 74,134 L96,50 L72,132 C64,160 30,153 36,126 L59,50 L35,103 C23,126 -8,116 2,90 L33,16 C54,-28 103,-79 160,-55 Z" fill="#F5A66F" stroke="#C66B45" stroke-width="6" stroke-linejoin="round"/>
  <path d="M76,35 C103,48 129,45 154,27" fill="none" stroke="#C66B45" stroke-width="5" stroke-linecap="round" opacity=".45"/>
  <path d="M84,73 C104,88 126,88 145,73" fill="none" stroke="#C66B45" stroke-width="5" stroke-linecap="round" opacity=".35"/>
  <path d="M116,118 C128,128 145,124 151,111" fill="none" stroke="#C66B45" stroke-width="5" stroke-linecap="round" opacity=".35"/>
  <ellipse cx="48" cy="111" rx="12" ry="20" fill="#F9BE8D" stroke="#C66B45" stroke-width="4"/>
  <ellipse cx="126" cy="138" rx="15" ry="20" fill="#F9BE8D" stroke="#C66B45" stroke-width="4"/>
</svg>
