<svg xmlns="http://www.w3.org/2000/svg" width="240" height="210" viewBox="0 0 240 210" role="img">
  <defs>
    <linearGradient id="sk" x1="0" y1="0" x2="0" y2="1">
      <stop offset="0%" stop-color="#F4BE92"/>
      <stop offset="100%" stop-color="#DE9568"/>
    </linearGradient>
  </defs>
  <g stroke="#B06A44" stroke-width="8" stroke-linejoin="round" stroke-linecap="round" fill="#B06A44">
    <ellipse cx="118" cy="56" rx="80" ry="44"/>
    <rect x="40" y="86" width="24" height="92" rx="12"/>
    <rect x="74" y="90" width="24" height="100" rx="12"/>
    <rect x="110" y="90" width="24" height="98" rx="12"/>
    <rect x="146" y="86" width="24" height="88" rx="12"/>
    <ellipse cx="194" cy="104" rx="18" ry="36"/>
  </g>
  <g fill="url(#sk)">
    <ellipse cx="118" cy="56" rx="80" ry="44"/>
    <rect x="40" y="86" width="24" height="92" rx="12"/>
    <rect x="74" y="90" width="24" height="100" rx="12"/>
    <rect x="110" y="90" width="24" height="98" rx="12"/>
    <rect x="146" y="86" width="24" height="88" rx="12"/>
    <ellipse cx="194" cy="104" rx="18" ry="36"/>
  </g>
  <path d="M64,94 q54,-16 108,0" fill="none" stroke="#C97E55" stroke-width="5" opacity="0.5"/>
  <g fill="#F8D2AC" opacity="0.6">
    <ellipse cx="52" cy="170" rx="8" ry="7"/><ellipse cx="86" cy="182" rx="8" ry="7"/>
    <ellipse cx="122" cy="180" rx="8" ry="7"/><ellipse cx="158" cy="166" rx="8" ry="7"/>
  </g>
</svg>
