<svg xmlns="http://www.w3.org/2000/svg" width="240" height="210" viewBox="0 0 240 210" role="img">
  <defs>
    <linearGradient id="sk" x1="0" y1="0" x2="0" y2="1">
      <stop offset="0%" stop-color="#F4BE92"/>
      <stop offset="100%" stop-color="#DE9568"/>
    </linearGradient>
  </defs>
  <g stroke="#B06A44" stroke-width="10" stroke-linejoin="round" stroke-linecap="round" fill="#B06A44">
    <ellipse cx="120" cy="58" rx="82" ry="46"/>
    <rect x="46" y="88" width="26" height="92" rx="13"/>
    <rect x="80" y="92" width="26" height="96" rx="13"/>
    <rect x="114" y="92" width="26" height="94" rx="13"/>
    <rect x="148" y="88" width="26" height="86" rx="13"/>
    <ellipse cx="196" cy="108" rx="20" ry="38"/>
  </g>
  <g fill="url(#sk)">
    <ellipse cx="120" cy="58" rx="82" ry="46"/>
    <rect x="46" y="88" width="26" height="92" rx="13"/>
    <rect x="80" y="92" width="26" height="96" rx="13"/>
    <rect x="114" y="92" width="26" height="94" rx="13"/>
    <rect x="148" y="88" width="26" height="86" rx="13"/>
    <ellipse cx="196" cy="108" rx="20" ry="38"/>
  </g>
  <path d="M70,96 q50,-16 100,0" fill="none" stroke="#C97E55" stroke-width="5" opacity="0.5"/>
  <g fill="#F8D2AC" opacity="0.6">
    <ellipse cx="59" cy="172" rx="9" ry="7"/><ellipse cx="93" cy="180" rx="9" ry="7"/>
    <ellipse cx="127" cy="178" rx="9" ry="7"/><ellipse cx="161" cy="166" rx="9" ry="7"/>
  </g>
</svg>
