<svg xmlns="http://www.w3.org/2000/svg" width="2400" height="720" viewBox="0 0 2400 720"><rect width="2400" height="720" fill="#413C69"/><rect x="0" y="0" width="2400" height="47" fill="#6E6A92"/><rect x="0" y="46" width="2400" height="75" fill="#54506F"/><rect x="0" y="120" width="2400" height="131" fill="#47426A"/><rect x="0" y="250" width="2400" height="171" fill="#3A3458"/><rect x="0" y="420" width="2400" height="141" fill="#2F2A49"/><rect x="0" y="560" width="2400" height="161" fill="#26223B"/><path fill="#7E7AA0" fill-opacity="0.22" d="M0,70 q300,8 600,0 t600,0 t600,0 t600,0 L2400,75 L0,75 Z"/><path fill="#7E7AA0" fill-opacity="0.22" d="M0,140 q300,8 600,0 t600,0 t600,0 t600,0 L2400,145 L0,145 Z"/><path fill="#7E7AA0" fill-opacity="0.22" d="M0,200 q300,8 600,0 t600,0 t600,0 t600,0 L2400,205 L0,205 Z"/><path fill="#23223C" fill-opacity="0.35" d="M1080.0,300 L1320.0,300 L1295.0,430 L1105.0,430 Z"/><rect x="1070" y="262" width="260" height="26" rx="4" fill="#2B2942"/><rect x="1088" y="286" width="14" height="46" fill="#23213A"/><rect x="1138" y="286" width="14" height="46" fill="#23213A"/><rect x="1248" y="286" width="14" height="46" fill="#23213A"/><rect x="1298" y="286" width="14" height="46" fill="#23213A"/><rect x="1072" y="250" width="256" height="16" rx="3" fill="#322F4D"/><g fill="#C8324E"><rect x="1130" y="206" width="12" height="58"/><rect x="1258" y="206" width="12" height="58"/><rect x="1118" y="200" width="164" height="13" rx="3"/><rect x="1140" y="220" width="120" height="9"/></g><path fill="#2B2A4A" d="M1120.0,170 L1280.0,170 L1292.0,250 L1108.0,250 Z"/><rect x="1145" y="196" width="18" height="30" rx="2" fill="#E8A24A" fill-opacity="0.85"/><rect x="1176" y="196" width="18" height="30" rx="2" fill="#E8A24A" fill-opacity="0.85"/><rect x="1207" y="196" width="18" height="30" rx="2" fill="#E8A24A" fill-opacity="0.85"/><rect x="1237" y="196" width="18" height="30" rx="2" fill="#E8A24A" fill-opacity="0.85"/><path fill="#1E1D34" d="M1072.0,176 Q1136.0,164.0 1200.0,136 Q1264.0,164.0 1328.0,176 Q1289.6,196.0 1270.4,198.0 L1129.6,198.0 Q1110.4,196.0 1072.0,176 Z"/><rect x="1129.6" y="194.0" width="140.8" height="6" fill="#4958B0"/><path fill="#262541" d="M1148.0,120 L1252.0,120 L1266.0,168 L1134.0,168 Z"/><path fill="#1E1D34" d="M1104.0,126 Q1152.0,116.4 1200.0,94 Q1248.0,116.4 1296.0,126 Q1267.2,142.0 1252.8,143.6 L1147.2,143.6 Q1132.8,142.0 1104.0,126 Z"/><rect x="1147.2" y="140.4" width="105.60000000000001" height="6" fill="#4958B0"/><path fill="#262541" d="M1170.0,86 L1230.0,86 L1240.0,120 L1160.0,120 Z"/><path fill="#1E1D34" d="M1138.0,92 Q1169.0,84.8 1200.0,68 Q1231.0,84.8 1262.0,92 Q1243.4,104.0 1234.1,105.2 L1165.9,105.2 Q1156.6,104.0 1138.0,92 Z"/><rect x="1165.9" y="102.8" width="68.2" height="6" fill="#4958B0"/><rect x="1196" y="58" width="8" height="20" fill="#C8324E"/><circle cx="1200" cy="56" r="6" fill="#E8A24A"/><path fill="#DA7271" d="M2400,470 C2150,455 2010,500 1960,560 C2050,620 2260,608 2400,605 Z"/><path fill="#F0908D" fill-opacity="0.7" d="M2400,470 C2200,460 2060,495 2010,545 C2110,562 2280,556 2400,548 Z"/><ellipse cx="2120" cy="560" rx="22" ry="10" fill="#3A3556"/><g fill="#C8324E"><rect x="2095" y="486" width="10" height="22" rx="4"/><circle cx="2100" cy="480" r="7" fill="#F0B59A"/><path d="M2096,506 L2078,518 L2082,524 L2100,512 Z"/><path d="M2102,506 L2102,528 L2096,528 Z"/><rect x="2101" y="490" width="22" height="7" rx="3" transform="rotate(-12 2100 494)"/></g><circle cx="1014" cy="617" r="2" fill="#EACDE9" fill-opacity="0.8"/><circle cx="1555" cy="545" r="3" fill="#EACDE9" fill-opacity="0.8"/><circle cx="308" cy="73" r="2" fill="#EACDE9" fill-opacity="0.8"/><circle cx="1102" cy="624" r="2" fill="#EACDE9" fill-opacity="0.8"/><circle cx="825" cy="541" r="3" fill="#EACDE9" fill-opacity="0.8"/><circle cx="2291" cy="547" r="2" fill="#EACDE9" fill-opacity="0.8"/><circle cx="656" cy="297" r="3" fill="#EACDE9" fill-opacity="0.8"/><circle cx="661" cy="595" r="2" fill="#EACDE9" fill-opacity="0.8"/><circle cx="102" cy="125" r="2" fill="#EACDE9" fill-opacity="0.8"/><circle cx="215" cy="368" r="2" fill="#EACDE9" fill-opacity="0.8"/><circle cx="1143" cy="544" r="3" fill="#EACDE9" fill-opacity="0.8"/><circle cx="1627" cy="497" r="2" fill="#EACDE9" fill-opacity="0.8"/><circle cx="1861" cy="197" r="2" fill="#EACDE9" fill-opacity="0.8"/><circle cx="439" cy="96" r="2" fill="#EACDE9" fill-opacity="0.8"/><circle cx="2067" cy="282" r="2" fill="#EACDE9" fill-opacity="0.8"/><circle cx="1826" cy="368" r="2" fill="#EACDE9" fill-opacity="0.8"/><circle cx="2117" cy="455" r="3" fill="#EACDE9" fill-opacity="0.8"/><circle cx="1477" cy="606" r="3" fill="#EACDE9" fill-opacity="0.8"/><circle cx="1709" cy="658" r="2" fill="#EACDE9" fill-opacity="0.8"/><circle cx="1419" cy="89" r="2" fill="#EACDE9" fill-opacity="0.8"/><circle cx="708" cy="394" r="3" fill="#EACDE9" fill-opacity="0.8"/><circle cx="466" cy="276" r="3" fill="#EACDE9" fill-opacity="0.8"/><circle cx="1133" cy="351" r="2" fill="#EACDE9" fill-opacity="0.8"/><circle cx="299" cy="553" r="3" fill="#EACDE9" fill-opacity="0.8"/><circle cx="2020" cy="150" r="2" fill="#EACDE9" fill-opacity="0.8"/><circle cx="312" cy="480" r="2" fill="#EACDE9" fill-opacity="0.8"/></svg>