<svg xmlns="http://www.w3.org/2000/svg" width="560" height="900" viewBox="0 0 560 900"><path fill="#211C30" d="M-25,910 L60,330 L145,910 Z"/><rect x="55" y="904" width="10" height="50" fill="#211C30"/><g fill="#2C2640"><path d="M110,915 L185,552 L260,915 Z"/><path d="M126,796 L185,473 L244,796 Z"/><path d="M143,677 L185,394 L227,677 Z"/><rect x="180" y="911" width="10" height="40"/></g><path fill="#211C30" d="M60,915 L120,465 L180,915 Z"/><rect x="115" y="909" width="10" height="50" fill="#211C30"/><path fill="none" stroke="#211C30" stroke-width="12" stroke-linecap="round" d="M-10,-10 C140,40 250,70 340,150 M170,40 C200,90 195,130 170,175 M290,95 C340,120 375,150 400,210 M340,150 C410,160 470,150 540,180"/><g><circle cx="49" cy="87" r="19" fill="#E7C8E6"/><circle cx="56" cy="70" r="17" fill="#E7C8E6"/><circle cx="79" cy="84" r="14" fill="#E7C8E6"/><circle cx="43" cy="86" r="17" fill="#E7C8E6"/><circle cx="85" cy="46" r="17" fill="#E7C8E6"/><circle cx="83" cy="57" r="20" fill="#E7C8E6"/><circle cx="93" cy="47" r="13" fill="#E7C8E6"/><circle cx="72" cy="85" r="8" fill="#F4DDF2"/><circle cx="58" cy="67" r="7" fill="#F4DDF2"/><circle cx="58" cy="68" r="9" fill="#F4DDF2"/><circle cx="58" cy="61" r="8" fill="#F4DDF2"/><circle cx="68" cy="63" r="7" fill="#F4DDF2"/></g><g><circle cx="194" cy="195" r="12" fill="#E7C8E6"/><circle cx="148" cy="190" r="17" fill="#E7C8E6"/><circle cx="179" cy="167" r="16" fill="#E7C8E6"/><circle cx="176" cy="179" r="13" fill="#E7C8E6"/><circle cx="166" cy="170" r="17" fill="#E7C8E6"/><circle cx="196" cy="195" r="16" fill="#E7C8E6"/><circle cx="167" cy="165" r="12" fill="#E7C8E6"/><circle cx="151" cy="174" r="7" fill="#F4DDF2"/><circle cx="165" cy="188" r="8" fill="#F4DDF2"/><circle cx="172" cy="167" r="6" fill="#F4DDF2"/><circle cx="163" cy="163" r="8" fill="#F4DDF2"/><circle cx="190" cy="181" r="7" fill="#F4DDF2"/></g><g><circle cx="391" cy="212" r="15" fill="#E7C8E6"/><circle cx="410" cy="216" r="12" fill="#E7C8E6"/><circle cx="380" cy="225" r="14" fill="#E7C8E6"/><circle cx="391" cy="232" r="15" fill="#E7C8E6"/><circle cx="422" cy="209" r="16" fill="#E7C8E6"/><circle cx="387" cy="216" r="18" fill="#E7C8E6"/><circle cx="406" cy="221" r="17" fill="#E7C8E6"/><circle cx="388" cy="218" r="8" fill="#F4DDF2"/><circle cx="397" cy="195" r="9" fill="#F4DDF2"/><circle cx="404" cy="217" r="10" fill="#F4DDF2"/><circle cx="414" cy="223" r="8" fill="#F4DDF2"/><circle cx="417" cy="208" r="10" fill="#F4DDF2"/></g><g><circle cx="528" cy="169" r="13" fill="#E7C8E6"/><circle cx="524" cy="168" r="13" fill="#E7C8E6"/><circle cx="560" cy="197" r="16" fill="#E7C8E6"/><circle cx="527" cy="186" r="13" fill="#E7C8E6"/><circle cx="525" cy="169" r="12" fill="#E7C8E6"/><circle cx="560" cy="198" r="16" fill="#E7C8E6"/><circle cx="554" cy="173" r="13" fill="#E7C8E6"/><circle cx="545" cy="192" r="8" fill="#F4DDF2"/><circle cx="554" cy="173" r="8" fill="#F4DDF2"/><circle cx="546" cy="185" r="6" fill="#F4DDF2"/><circle cx="539" cy="173" r="9" fill="#F4DDF2"/><circle cx="553" cy="186" r="6" fill="#F4DDF2"/></g><g><circle cx="290" cy="99" r="15" fill="#E7C8E6"/><circle cx="305" cy="99" r="16" fill="#E7C8E6"/><circle cx="264" cy="89" r="16" fill="#E7C8E6"/><circle cx="292" cy="105" r="11" fill="#E7C8E6"/><circle cx="284" cy="81" r="13" fill="#E7C8E6"/><circle cx="288" cy="72" r="11" fill="#E7C8E6"/><circle cx="275" cy="106" r="15" fill="#E7C8E6"/><circle cx="273" cy="98" r="6" fill="#F4DDF2"/><circle cx="289" cy="80" r="5" fill="#F4DDF2"/><circle cx="298" cy="82" r="6" fill="#F4DDF2"/><circle cx="301" cy="100" r="6" fill="#F4DDF2"/><circle cx="301" cy="91" r="7" fill="#F4DDF2"/></g></svg>