<svg xmlns="http://www.w3.org/2000/svg" width="244" height="120" viewBox="0 0 244 120">
<defs><linearGradient id="g" x1="0" y1="0" x2="0" y2="1">
<stop offset="0" stop-color="#42505C"/><stop offset="1" stop-color="#283038"/></linearGradient></defs>
<ellipse cx="122" cy="104" rx="104" ry="15" fill="#1C1A2C" fill-opacity="0.30"/>
<path fill="url(#g)" d="M40,44 C58,22 92,16 122,16 C156,16 190,22 206,46 C218,64 216,84 196,94 C168,108 78,108 50,94 C30,84 28,62 40,44 Z"/>
<path fill="#A6C5BA" fill-opacity="0.55" d="M52,40 C72,24 100,20 122,20 C150,20 178,26 192,44 C170,34 80,34 52,40 Z"/>
<ellipse cx="96" cy="40" rx="30" ry="10" fill="#FFFFFF" fill-opacity="0.10"/>
</svg>